<svg xmlns="http://www.w3.org/2000/svg" width="598.4498901367188" height="584.965576171875" viewBox="-204.1378936767578 -180.93667602539062 598.4498901367188 584.965576171875"><title>Neo4j Graph Visualization</title><desc>Created using Neo4j (http://www.neo4j.com/)</desc><g class="layer relationships"><g class="relationship" transform="translate(176.62698223606216 375.0288237974255) rotate(257.73977200678587)"><path class="outline" fill="#A5ABB6" stroke="none" d="M 21.40063509461097,12.933012701892217 L 21.90063509461097,12.06698729810778 A 55.616532152101314 55.616532152101314 0 0 0 23.36905361550274,12.885441425146084 L 22.895456169996354,13.766182851224038 A 56.616532152101314 56.616532152101314 0 0 1 21.40063509461097,12.933012701892217 Z M 73.27846697322856,15.378907712651724 L 72.86216514571205,14.469681234591157 A 55.616532152101314 55.616532152101314 0 0 0 74.37992033314693,13.746812434892053 L 73.04914592806458,11.058125118974168 L 80.87531980446904,11.089786709019556 L 76.15428620659006,17.3317288561159 L 74.8235118015077,14.643041540198016 A 56.616532152101314 56.616532152101314 0 0 1 73.27846697322856,15.378907712651724"/><text text-anchor="middle" pointer-events="none" font-size="8px" fill="#000000" x="47.91356981808504" y="22.98946344330961" transform="rotate(180 47.91356981808504 19.98946344330961)" font-family="sans-serif">PRODUCED</text></g><g class="relationship" transform="translate(176.62698223606216 375.0288237974255) rotate(257.73977200678587)"><path class="outline" fill="#A5ABB6" stroke="none" d="M 25 0.5 L 26.25185184355903 0.5 L 26.25185184355903 -0.5 L 25 -0.5 Z M 70.02919559355902 0.5 L 71.28104743711806 0.5 L 71.28104743711806 3.5 L 78.28104743711806 0 L 71.28104743711806 -3.5 L 71.28104743711806 -0.5 L 70.02919559355902 -0.5 Z"/><text text-anchor="middle" pointer-events="none" font-size="8px" fill="#000000" x="48.14052371855903" y="3" transform="rotate(180 48.14052371855903 0)" font-family="sans-serif">DIRECT…</text></g><g class="relationship" transform="translate(176.62698223606216 375.0288237974255) rotate(257.73977200678587)"><path class="outline" fill="#A5ABB6" stroke="none" d="M 21.40063509461097,-12.933012701892217 L 21.90063509461097,-12.06698729810778 A 55.616532152101314 55.616532152101314 0 0 1 30.5994174439626,-16.132168593601655 L 30.255823857896537,-17.071287035340646 A 56.616532152101314 56.616532152101314 0 0 0 21.40063509461097,-12.933012701892217 Z M 65.72179507624838,-18.206527915285157 L 65.43896436767429,-17.247358070947115 A 55.616532152101314 55.616532152101314 0 0 1 74.37992033314693,-13.746812434892053 L 73.04914592806458,-11.058125118974168 L 80.87531980446904,-11.089786709019556 L 76.15428620659006,-17.3317288561159 L 74.8235118015077,-14.643041540198016 A 56.616532152101314 56.616532152101314 0 0 0 65.72179507624838,-18.206527915285157"/><text text-anchor="middle" pointer-events="none" font-size="8px" fill="#000000" x="47.91356981808502" y="-16.98946344330961" transform="rotate(180 47.91356981808502 -19.98946344330961)" font-family="sans-serif">WROTE</text></g><g class="relationship" transform="translate(354.77655444602766 197.1563571073044) rotate(275.6277851233023)"><path class="outline" fill="#A5ABB6" stroke="none" d="M 24.018736134675446,6.953439040707552 L 24.277555179777966,5.987513214418485 A 106.56909772741156 106.56909772741156 0 0 0 32.47439890679864,7.840813908879838 L 32.2924956271649,8.824130336515665 A 107.56909772741156 107.56909772741156 0 0 1 24.018736134675446,6.953439040707552 Z M 68.06154967416862,9.391616911864219 L 67.91093130211345,8.403024930306884 A 106.56909772741156 106.56909772741156 0 0 0 76.16244117655765,6.810682209270023 L 75.47829987095056,3.889731906036122 L 83.09201543503794,5.701177546725785 L 77.07462958403377,10.705282613581891 L 76.39048827842669,7.78433231034799 A 107.56909772741156 107.56909772741156 0 0 1 68.06154967416862,9.391616911864219"/><text text-anchor="middle" pointer-events="none" font-size="8px" fill="#000000" x="50.161198272306684" y="13.105294654764705" font-family="sans-serif">WROTE</text></g><g class="relationship" transform="translate(354.77655444602766 197.1563571073044) rotate(275.6277851233023)"><path class="outline" fill="#A5ABB6" stroke="none" d="M 24.018736134675446,-6.953439040707552 L 24.277555179777966,-5.987513214418485 A 106.56909772741156 106.56909772741156 0 0 1 27.062629144858267,-6.693673070768412 L 26.829944073153964,-7.6662252068546906 A 107.56909772741156 107.56909772741156 0 0 0 24.018736134675446,-6.953439040707552 Z M 73.55808375507975,-8.407580902916933 L 73.35636767748429,-7.428136864679175 A 106.56909772741156 106.56909772741156 0 0 1 76.16244117655765,-6.810682209270023 L 75.47829987095056,-3.889731906036122 L 83.09201543503794,-5.701177546725785 L 77.07462958403377,-10.705282613581891 L 76.39048827842669,-7.78433231034799 A 107.56909772741156 107.56909772741156 0 0 0 73.55808375507975,-8.407580902916933"/><text text-anchor="middle" pointer-events="none" font-size="8px" fill="#000000" x="50.16119827230669" y="-7.105294654764705" font-family="sans-serif">DIRECTED</text></g><g class="relationship" transform="translate(258.5457144630678 91.09017308731896) rotate(359.5442618441908)"><path class="outline" fill="#A5ABB6" stroke="none" d="M 24.018736134675446,6.953439040707552 L 24.277555179777966,5.987513214418485 A 105.24262476851781 105.24262476851781 0 0 0 32.145954452111894,7.775604552183353 L 31.961899783987246,8.758520560365909 A 106.24262476851781 106.24262476851781 0 0 1 24.018736134675446,6.953439040707552 Z M 67.72877844770856,9.32928918877819 L 67.57618030118701,8.341000867650095 A 105.24262476851781 105.24262476851781 0 0 0 75.49762735658429,6.804884241350917 L 74.81402762930033,3.8838071432829304 L 82.42740720662358,5.696664394033007 L 76.40909365962956,10.699653705441566 L 75.7254939323456,7.77857660737358 A 106.24262476851781 106.24262476851781 0 0 1 67.72877844770856,9.32928918877819"/><text text-anchor="middle" pointer-events="none" font-size="8px" fill="#000000" x="49.829122538025224" y="13.06010713666555" font-family="sans-serif">WROTE</text></g><g class="relationship" transform="translate(258.5457144630678 91.09017308731896) rotate(359.5442618441908)"><path class="outline" fill="#A5ABB6" stroke="none" d="M 24.018736134675446,-6.953439040707552 L 24.277555179777966,-5.987513214418485 A 105.24262476851781 105.24262476851781 0 0 1 26.737419332354733,-6.614933982023317 L 26.501973556001325,-7.5868214685140885 A 106.24262476851781 106.24262476851781 0 0 0 24.018736134675446,-6.953439040707552 Z M 73.22331102933111,-8.332401589104492 L 73.01899604511289,-7.353496390822286 A 105.24262476851781 105.24262476851781 0 0 1 75.49762735658429,-6.804884241350917 L 74.81402762930033,-3.8838071432829304 L 82.42740720662358,-5.696664394033007 L 76.40909365962956,-10.699653705441566 L 75.7254939323456,-7.77857660737358 A 106.24262476851781 106.24262476851781 0 0 0 73.22331102933111,-8.332401589104492"/><text text-anchor="middle" pointer-events="none" font-size="8px" fill="#000000" x="49.829122538025224" y="-7.06010713666555" font-family="sans-serif">DIRECTED</text></g><g class="relationship" transform="translate(285.3429572494608 -124.04379938143465) rotate(510.5983794811579)"><path class="outline" fill="#A5ABB6" stroke="none" d="M 21.40063509461097,12.933012701892217 L 21.90063509461097,12.06698729810778 A 56.81166420904045 56.81166420904045 0 0 0 23.900026427196746,13.168383149386955 L 23.435219751673724,14.05379534401115 A 57.81166420904045 57.81166420904045 0 0 1 21.40063509461097,12.933012701892217 Z M 73.8843468285075,15.651793338068323 L 73.47650733881349,14.738739697450129 A 56.81166420904045 56.81166420904045 0 0 0 75.54159502813545,13.766087983091387 L 74.20902742003912,11.078288963474698 L 82.03522067525711,11.104730067469404 L 77.31835183893054,17.349820009246972 L 75.98578423083421,14.662020989630284 A 57.81166420904045 57.81166420904045 0 0 1 73.8843468285075,15.651793338068323"/><text text-anchor="middle" pointer-events="none" font-size="8px" fill="#000000" x="48.49200538981378" y="23.149577342788355" transform="rotate(180 48.49200538981378 20.149577342788355)" font-family="sans-serif">PRODUCED</text></g><g class="relationship" transform="translate(285.3429572494608 -124.04379938143465) rotate(510.5983794811579)"><path class="outline" fill="#A5ABB6" stroke="none" d="M 25 0.5 L 30.830054169364757 0.5 L 30.830054169364757 -0.5 L 25 -0.5 Z M 66.60349166936476 0.5 L 72.43354583872951 0.5 L 72.43354583872951 3.5 L 79.43354583872951 0 L 72.43354583872951 -3.5 L 72.43354583872951 -0.5 L 66.60349166936476 -0.5 Z"/><text text-anchor="middle" pointer-events="none" font-size="8px" fill="#000000" x="48.71677291936476" y="3" transform="rotate(180 48.71677291936476 0)" font-family="sans-serif">WROTE</text></g><g class="relationship" transform="translate(285.3429572494608 -124.04379938143465) rotate(510.5983794811579)"><path class="outline" fill="#A5ABB6" stroke="none" d="M 21.40063509461097,-12.933012701892217 L 21.90063509461097,-12.06698729810778 A 56.81166420904045 56.81166420904045 0 0 1 26.069628272998738,-14.248943599215963 L 25.643010970661805,-15.153375839545092 A 57.81166420904045 57.81166420904045 0 0 0 21.40063509461097,-12.933012701892217 Z M 71.61139191172654,-16.609444255198788 L 71.24286896736777,-15.679825602480832 A 56.81166420904045 56.81166420904045 0 0 1 75.54159502813545,-13.766087983091387 L 74.20902742003912,-11.078288963474698 L 82.03522067525711,-11.104730067469404 L 77.31835183893054,-17.349820009246972 L 75.98578423083421,-14.662020989630284 A 57.81166420904045 57.81166420904045 0 0 0 71.61139191172654,-16.609444255198788"/><text text-anchor="middle" pointer-events="none" font-size="8px" fill="#000000" x="48.49200538981377" y="-17.149577342788355" transform="rotate(180 48.49200538981377 -20.149577342788355)" font-family="sans-serif">DIRECTED</text></g><g class="relationship" transform="translate(66.19544863607253 -130.74554504145263) rotate(191.92555032354642)"><path class="outline" fill="#A5ABB6" stroke="none" d="M 21.40063509461097,12.933012701892217 L 21.90063509461097,12.06698729810778 A 54.85870072763802 54.85870072763802 0 0 0 25.185703014105194,13.817787013633499 L 24.745585364141224,14.715727130896447 A 55.85870072763802 55.85870072763802 0 0 1 21.40063509461097,12.933012701892217 Z M 70.63411281348772,16.194463423351685 L 70.25271963610368,15.270050504659551 A 54.85870072763802 54.85870072763802 0 0 0 73.64369241931452,13.734383072205995 L 72.314074329291,11.045123743936923 L 80.14023386694628,11.080150750195973 L 75.41651653934588,17.320062176564758 L 74.08689844932236,14.630802848295685 A 55.85870072763802 55.85870072763802 0 0 1 70.63411281348772,16.194463423351685"/><text text-anchor="middle" pointer-events="none" font-size="8px" fill="#000000" x="47.54700277267386" y="22.887939140293412" transform="rotate(180 47.54700277267386 19.887939140293412)" font-family="sans-serif">DIRECTED</text></g><g class="relationship" transform="translate(66.19544863607253 -130.74554504145263) rotate(191.92555032354642)"><path class="outline" fill="#A5ABB6" stroke="none" d="M 25 0.5 L 26.33005163459429 0.5 L 26.33005163459429 -0.5 L 25 -0.5 Z M 69.2206766345943 0.5 L 70.55072826918858 0.5 L 70.55072826918858 3.5 L 77.55072826918858 0 L 70.55072826918858 -3.5 L 70.55072826918858 -0.5 L 69.2206766345943 -0.5 Z"/><text text-anchor="middle" pointer-events="none" font-size="8px" fill="#000000" x="47.77536413459429" y="3" transform="rotate(180 47.77536413459429 0)" font-family="sans-serif">PRODU…</text></g><g class="relationship" transform="translate(66.19544863607253 -130.74554504145263) rotate(191.92555032354642)"><path class="outline" fill="#A5ABB6" stroke="none" d="M 21.40063509461097,-12.933012701892217 L 21.90063509461097,-12.06698729810778 A 54.85870072763802 54.85870072763802 0 0 1 30.245211033011124,-15.989937526599164 L 29.897321378821704,-16.927473013131788 A 55.85870072763802 55.85870072763802 0 0 0 21.40063509461097,-12.933012701892217 Z M 65.35066795459318,-18.069940492142898 L 65.06386066606926,-17.11195219406742 A 54.85870072763802 54.85870072763802 0 0 1 73.64369241931452,-13.734383072205995 L 72.314074329291,-11.045123743936923 L 80.14023386694628,-11.080150750195973 L 75.41651653934588,-17.320062176564758 L 74.08689844932236,-14.630802848295685 A 55.85870072763802 55.85870072763802 0 0 0 65.35066795459318,-18.069940492142898"/><text text-anchor="middle" pointer-events="none" font-size="8px" fill="#000000" x="47.54700277267388" y="-16.887939140293412" transform="rotate(180 47.54700277267388 -19.887939140293412)" font-family="sans-serif">WROTE</text></g><g class="relationship" transform="translate(-37.143890190244754 52.96185110020398) rotate(203.53212004234888)"><path class="outline" fill="#A5ABB6" stroke="none" d="M 24.018736134675446,-6.953439040707552 L 24.277555179777966,-5.987513214418485 A 108.90757572433199 108.90757572433199 0 0 1 33.05402281468166,-7.954661390642613 L 32.8757901528177,-8.938649763665836 A 109.90757572433199 109.90757572433199 0 0 0 24.018736134675446,-6.953439040707552 Z M 68.64843046172918,-9.500435119238759 L 68.50118382816552,-8.511335311886555 A 108.90757572433199 108.90757572433199 0 0 1 77.33509377534297,-6.820746320175786 L 76.65001240216702,-3.900016357969872 L 84.26431058268608,-5.709011443132896 L 78.24853560624422,-10.715052936450338 L 77.56345423306827,-7.794322974244423 A 109.90757572433199 109.90757572433199 0 0 0 68.64843046172918,-9.500435119238759"/><text text-anchor="middle" pointer-events="none" font-size="8px" fill="#000000" x="50.746949071350215" y="-7.184959987388382" transform="rotate(180 50.746949071350215 -10.184959987388382)" font-family="sans-serif">WROTE</text></g><g class="relationship" transform="translate(-37.143890190244754 52.96185110020398) rotate(203.53212004234888)"><path class="outline" fill="#A5ABB6" stroke="none" d="M 24.018736134675446,6.953439040707552 L 24.277555179777966,5.987513214418485 A 108.90757572433199 108.90757572433199 0 0 0 27.636816708625254,6.830610209553484 L 27.408842731062848,7.804277434818033 A 109.90757572433199 109.90757572433199 0 0 1 24.018736134675446,6.953439040707552 Z M 74.14830229610631,8.538289341243981 L 73.95101478230187,7.557943669097227 A 108.90757572433199 108.90757572433199 0 0 0 77.33509377534297,6.820746320175786 L 76.65001240216702,3.900016357969872 L 84.26431058268608,5.709011443132896 L 78.24853560624422,10.715052936450338 L 77.56345423306827,7.794322974244423 A 109.90757572433199 109.90757572433199 0 0 1 74.14830229610631,8.538289341243981"/><text text-anchor="middle" pointer-events="none" font-size="8px" fill="#000000" x="50.74694907135024" y="13.184959987388382" transform="rotate(180 50.74694907135024 10.184959987388382)" font-family="sans-serif">DIRECTED</text></g><g class="relationship" transform="translate(-175.1378904320959 108.97523880936829) rotate(291.1384250726259)"><path class="outline" fill="#A5ABB6" stroke="none" d="M 24.018736134675446,-6.953439040707552 L 24.277555179777966,-5.987513214418485 A 104.79126562746417 104.79126562746417 0 0 1 26.626844221965246,-6.587959350914403 L 26.390443925487627,-7.559615102621407 A 105.79126562746417 105.79126562746417 0 0 0 24.018736134675446,-6.953439040707552 Z M 73.1094004155313,-8.306642472117758 L 72.90418621564245,-7.327925387274547 A 104.79126562746417 104.79126562746417 0 0 1 75.27147139455835,-6.8028963897332675 L 74.58805734949297,-3.881775843948248 L 82.20132167556763,-5.695117042211539 L 76.18269012131219,-10.697723784113293 L 75.49927607624682,-7.776603238328273 A 105.79126562746417 105.79126562746417 0 0 0 73.1094004155313,-8.306642472117758"/><text text-anchor="middle" pointer-events="none" font-size="8px" fill="#000000" x="49.716158039056126" y="-7.0447314577722295" font-family="sans-serif">DIRECTED</text></g><g class="relationship" transform="translate(-175.1378904320959 108.97523880936829) rotate(291.1384250726259)"><path class="outline" fill="#A5ABB6" stroke="none" d="M 24.018736134675446,6.953439040707552 L 24.277555179777966,5.987513214418485 A 104.79126562746417 104.79126562746417 0 0 0 32.03425252633487,7.753307724946453 L 31.84945393799572,8.736084139879082 A 105.79126562746417 105.79126562746417 0 0 1 24.018736134675446,6.953439040707552 Z M 67.6155677219864,9.307977604641195 L 67.46228439428214,8.319795323152647 A 104.79126562746417 104.79126562746417 0 0 0 75.27147139455835,6.8028963897332675 L 74.58805734949297,3.881775843948248 L 82.20132167556763,5.695117042211539 L 76.18269012131219,10.697723784113293 L 75.49927607624682,7.776603238328273 A 105.79126562746417 105.79126562746417 0 0 1 67.6155677219864,9.307977604641195"/><text text-anchor="middle" pointer-events="none" font-size="8px" fill="#000000" x="49.716158039056175" y="13.04473145777223" font-family="sans-serif">WROTE</text></g><g class="relationship" transform="translate(-5.1317423957378185 249.97562307284383) rotate(500.94727063228834)"><path class="outline" fill="#A5ABB6" stroke="none" d="M 21.40063509461097,12.933012701892217 L 21.90063509461097,12.06698729810778 A 56.6561061309902 56.6561061309902 0 0 0 23.83073769800381,13.13181565593036 L 23.364804680985845,14.01663565098729 A 57.6561061309902 57.6561061309902 0 0 1 21.40063509461097,12.933012701892217 Z M 73.80556797867087,15.616541494471882 L 73.39664546550289,14.70397238573306 A 56.6561061309902 56.6561061309902 0 0 0 75.39035000566972,13.763601343130702 L 74.05801372823181,11.075687645888381 L 81.88420467880812,11.10280231198262 L 77.16679837558694,17.34748627278713 L 75.83446209814903,14.659572575544807 A 57.6561061309902 57.6561061309902 0 0 1 73.80556797867087,15.616541494471882"/><text text-anchor="middle" pointer-events="none" font-size="8px" fill="#000000" x="48.41669291168104" y="23.128736569811863" transform="rotate(180 48.41669291168104 20.128736569811863)" font-family="sans-serif">PRODUCED</text></g><g class="relationship" transform="translate(-5.1317423957378185 249.97562307284383) rotate(500.94727063228834)"><path class="outline" fill="#A5ABB6" stroke="none" d="M 25 0.5 L 25.19643024458039 0.5 L 25.19643024458039 -0.5 L 25 -0.5 Z M 72.0870552445804 0.5 L 72.28348548916078 0.5 L 72.28348548916078 3.5 L 79.28348548916078 0 L 72.28348548916078 -3.5 L 72.28348548916078 -0.5 L 72.0870552445804 -0.5 Z"/><text text-anchor="middle" pointer-events="none" font-size="8px" fill="#000000" x="48.64174274458039" y="3" transform="rotate(180 48.64174274458039 0)" font-family="sans-serif">DIRECTED</text></g><g class="relationship" transform="translate(-5.1317423957378185 249.97562307284383) rotate(500.94727063228834)"><path class="outline" fill="#A5ABB6" stroke="none" d="M 21.40063509461097,-12.933012701892217 L 21.90063509461097,-12.06698729810778 A 56.6561061309902 56.6561061309902 0 0 1 31.08628910334353,-16.325678391515936 L 30.748419094901635,-17.266871175910012 A 57.6561061309902 57.6561061309902 0 0 0 21.40063509461097,-12.933012701892217 Z M 66.23081738072216,-18.39231997261642 L 65.95327298352925,-17.431607160384367 A 56.6561061309902 56.6561061309902 0 0 1 75.39035000566972,-13.763601343130702 L 74.05801372823181,-11.075687645888381 L 81.88420467880812,-11.10280231198262 L 77.16679837558694,-17.34748627278713 L 75.83446209814903,-14.659572575544807 A 57.6561061309902 57.6561061309902 0 0 0 66.23081738072216,-18.39231997261642"/><text text-anchor="middle" pointer-events="none" font-size="8px" fill="#000000" x="48.41669291168103" y="-17.128736569811863" transform="rotate(180 48.41669291168103 -20.128736569811863)" font-family="sans-serif">WROTE</text></g></g><g class="layer nodes"><g class="node" transform="translate(176.62698223606216,375.0288237974255)"><circle class="outline" cx="0" cy="0" r="25" fill="#F79767" stroke="#f36924" stroke-width="2px"/><text text-anchor="middle" pointer-events="none" font-family="sans-serif" dy="1.5625" font-size="25" fill="#FFFFFF"/><text text-anchor="middle" pointer-events="none" font-family="sans-serif" dy="1.5625" font-size="25" fill="#FFFFFF"/><text text-anchor="middle" pointer-events="none" x="0" y="0" font-size="10px" fill="#FFFFFF" font-family="sans-serif"> Cameron</text><text text-anchor="middle" pointer-events="none" x="0" y="10" font-size="10px" fill="#FFFFFF" font-family="sans-serif"> Crowe</text></g><g class="node" transform="translate(154.69503322795714,274.1032850452637)"><circle class="outline" cx="0" cy="0" r="25" fill="#57C7E3" stroke="#23b3d7" stroke-width="2px"/><text text-anchor="middle" pointer-events="none" font-family="sans-serif" dy="1.5625" font-size="25" fill="#2A2C34"/><text text-anchor="middle" pointer-events="none" font-family="sans-serif" dy="1.5625" font-size="25" fill="#2A2C34"/><text text-anchor="middle" pointer-events="none" x="0" y="0" font-size="10px" fill="#2A2C34" font-family="sans-serif"> Jerry</text><text text-anchor="middle" pointer-events="none" x="0" y="10" font-size="10px" fill="#2A2C34" font-family="sans-serif"> Maguire</text></g><g class="node" transform="translate(354.77655444602766,197.1563571073044)"><circle class="outline" cx="0" cy="0" r="25" fill="#F79767" stroke="#f36924" stroke-width="2px"/><text text-anchor="middle" pointer-events="none" font-family="sans-serif" dy="1.5625" font-size="25" fill="#FFFFFF"/><text text-anchor="middle" pointer-events="none" font-family="sans-serif" dy="1.5625" font-size="25" fill="#FFFFFF"/><text text-anchor="middle" pointer-events="none" x="0" y="0" font-size="10px" fill="#FFFFFF" font-family="sans-serif"> Lana</text><text text-anchor="middle" pointer-events="none" x="0" y="10" font-size="10px" fill="#FFFFFF" font-family="sans-serif"> Wacho…</text></g><g class="node" transform="translate(365.31205327388955,90.24092169482411)"><circle class="outline" cx="0" cy="0" r="25" fill="#57C7E3" stroke="#23b3d7" stroke-width="2px"/><text text-anchor="middle" pointer-events="none" font-family="sans-serif" dy="1.5625" font-size="25" fill="#2A2C34"/><text text-anchor="middle" pointer-events="none" font-family="sans-serif" dy="1.5625" font-size="25" fill="#2A2C34"/><text text-anchor="middle" pointer-events="none" x="0" y="0" font-size="10px" fill="#2A2C34" font-family="sans-serif"> Speed</text><text text-anchor="middle" pointer-events="none" x="0" y="10" font-size="10px" fill="#2A2C34" font-family="sans-serif"> Racer</text></g><g class="node" transform="translate(258.5457144630678,91.09017308731896)"><circle class="outline" cx="0" cy="0" r="25" fill="#F79767" stroke="#f36924" stroke-width="2px"/><text text-anchor="middle" pointer-events="none" font-family="sans-serif" dy="1.5625" font-size="25" fill="#FFFFFF"/><text text-anchor="middle" pointer-events="none" font-family="sans-serif" dy="1.5625" font-size="25" fill="#FFFFFF"/><text text-anchor="middle" pointer-events="none" x="0" y="0" font-size="10px" fill="#FFFFFF" font-family="sans-serif"> Andy</text><text text-anchor="middle" pointer-events="none" x="0" y="10" font-size="10px" fill="#FFFFFF" font-family="sans-serif"> Wacho…</text></g><g class="node" transform="translate(285.3429572494608,-124.04379938143465)"><circle class="outline" cx="0" cy="0" r="25" fill="#F79767" stroke="#f36924" stroke-width="2px"/><text text-anchor="middle" pointer-events="none" font-family="sans-serif" dy="1.5625" font-size="25" fill="#FFFFFF"/><text text-anchor="middle" pointer-events="none" font-family="sans-serif" dy="1.5625" font-size="25" fill="#FFFFFF"/><text text-anchor="middle" pointer-events="none" x="0" y="0" font-size="10px" fill="#FFFFFF" font-family="sans-serif"> Nancy</text><text text-anchor="middle" pointer-events="none" x="0" y="10" font-size="10px" fill="#FFFFFF" font-family="sans-serif"> Meyers</text></g><g class="node" transform="translate(194.36045980632025,-72.77440641195491)"><circle class="outline" cx="0" cy="0" r="25" fill="#57C7E3" stroke="#23b3d7" stroke-width="2px"/><text text-anchor="middle" pointer-events="none" font-family="sans-serif" dy="1.5625" font-size="25" fill="#2A2C34"/><text text-anchor="middle" pointer-events="none" x="0" y="5" font-size="10px" fill="#2A2C34" font-family="sans-serif"> Somethi…</text></g><g class="node" transform="translate(66.19544863607253,-130.74554504145263)"><circle class="outline" cx="0" cy="0" r="25" fill="#F79767" stroke="#f36924" stroke-width="2px"/><text text-anchor="middle" pointer-events="none" font-family="sans-serif" dy="1.5625" font-size="25" fill="#FFFFFF"/><text text-anchor="middle" pointer-events="none" font-family="sans-serif" dy="1.5625" font-size="25" fill="#FFFFFF"/><text text-anchor="middle" pointer-events="none" x="0" y="0" font-size="10px" fill="#FFFFFF" font-family="sans-serif"> Cameron</text><text text-anchor="middle" pointer-events="none" x="0" y="10" font-size="10px" fill="#FFFFFF" font-family="sans-serif"> Crowe</text></g><g class="node" transform="translate(-34.14192046371629,-151.93668070412303)"><circle class="outline" cx="0" cy="0" r="25" fill="#57C7E3" stroke="#23b3d7" stroke-width="2px"/><text text-anchor="middle" pointer-events="none" font-family="sans-serif" dy="1.5625" font-size="25" fill="#2A2C34"/><text text-anchor="middle" pointer-events="none" font-family="sans-serif" dy="1.5625" font-size="25" fill="#2A2C34"/><text text-anchor="middle" pointer-events="none" x="0" y="0" font-size="10px" fill="#2A2C34" font-family="sans-serif"> Jerry</text><text text-anchor="middle" pointer-events="none" x="0" y="10" font-size="10px" fill="#2A2C34" font-family="sans-serif"> Maguire</text></g><g class="node" transform="translate(-37.143890190244754,52.96185110020398)"><circle class="outline" cx="0" cy="0" r="25" fill="#F79767" stroke="#f36924" stroke-width="2px"/><text text-anchor="middle" pointer-events="none" font-family="sans-serif" dy="1.5625" font-size="25" fill="#FFFFFF"/><text text-anchor="middle" pointer-events="none" font-family="sans-serif" dy="1.5625" font-size="25" fill="#FFFFFF"/><text text-anchor="middle" pointer-events="none" x="0" y="0" font-size="10px" fill="#FFFFFF" font-family="sans-serif"> Lana</text><text text-anchor="middle" pointer-events="none" x="0" y="10" font-size="10px" fill="#FFFFFF" font-family="sans-serif"> Wacho…</text></g><g class="node" transform="translate(-136.71573928188647,9.600389264681265)"><circle class="outline" cx="0" cy="0" r="25" fill="#57C7E3" stroke="#23b3d7" stroke-width="2px"/><text text-anchor="middle" pointer-events="none" font-family="sans-serif" dy="1.5625" font-size="25" fill="#2A2C34"/><text text-anchor="middle" pointer-events="none" font-family="sans-serif" dy="1.5625" font-size="25" fill="#2A2C34"/><text text-anchor="middle" pointer-events="none" x="0" y="0" font-size="10px" fill="#2A2C34" font-family="sans-serif"> Speed</text><text text-anchor="middle" pointer-events="none" x="0" y="10" font-size="10px" fill="#2A2C34" font-family="sans-serif"> Racer</text></g><g class="node" transform="translate(-175.1378904320959,108.97523880936829)"><circle class="outline" cx="0" cy="0" r="25" fill="#F79767" stroke="#f36924" stroke-width="2px"/><text text-anchor="middle" pointer-events="none" font-family="sans-serif" dy="1.5625" font-size="25" fill="#FFFFFF"/><text text-anchor="middle" pointer-events="none" font-family="sans-serif" dy="1.5625" font-size="25" fill="#FFFFFF"/><text text-anchor="middle" pointer-events="none" x="0" y="0" font-size="10px" fill="#FFFFFF" font-family="sans-serif"> Lilly</text><text text-anchor="middle" pointer-events="none" x="0" y="10" font-size="10px" fill="#FFFFFF" font-family="sans-serif"> Wacho…</text></g><g class="node" transform="translate(-5.1317423957378185,249.97562307284383)"><circle class="outline" cx="0" cy="0" r="25" fill="#F79767" stroke="#f36924" stroke-width="2px"/><text text-anchor="middle" pointer-events="none" font-family="sans-serif" dy="1.5625" font-size="25" fill="#FFFFFF"/><text text-anchor="middle" pointer-events="none" font-family="sans-serif" dy="1.5625" font-size="25" fill="#FFFFFF"/><text text-anchor="middle" pointer-events="none" x="0" y="0" font-size="10px" fill="#FFFFFF" font-family="sans-serif"> Nancy</text><text text-anchor="middle" pointer-events="none" x="0" y="10" font-size="10px" fill="#FFFFFF" font-family="sans-serif"> Meyers</text></g><g class="node" transform="translate(-86.11480041367462,315.67790354948704)"><circle class="outline" cx="0" cy="0" r="25" fill="#57C7E3" stroke="#23b3d7" stroke-width="2px"/><text text-anchor="middle" pointer-events="none" font-family="sans-serif" dy="1.5625" font-size="25" fill="#2A2C34"/><text text-anchor="middle" pointer-events="none" x="0" y="5" font-size="10px" fill="#2A2C34" font-family="sans-serif"> Somethi…</text></g></g></svg>