<svg xmlns="http://www.w3.org/2000/svg" width="622.539794921875" height="620.6471557617188" viewBox="-220.06149291992188 -227.29078674316406 622.539794921875 620.6471557617188"><title>Neo4j Graph Visualization</title><desc>Created using Neo4j (http://www.neo4j.com/)</desc><g class="layer relationships"><g class="relationship" transform="translate(-57.25660058442696 137.56593493993216) rotate(336.68059964617373)"><path class="outline" fill="#A5ABB6" stroke="none" d="M 25 0.5 L 60.80078901422375 0.5 L 60.80078901422375 -0.5 L 25 -0.5 Z M 95.24610151422375 0.5 L 131.0468905284475 0.5 L 131.0468905284475 3.5 L 138.0468905284475 0 L 131.0468905284475 -3.5 L 131.0468905284475 -0.5 L 95.24610151422375 -0.5 Z"/><text text-anchor="middle" pointer-events="none" font-size="8px" fill="#000000" x="78.02344526422375" y="3" font-family="sans-serif">ORIGIN</text></g><g class="relationship" transform="translate(-57.25660058442696 137.56593493993216) rotate(202.01873763010622)"><path class="outline" fill="#A5ABB6" stroke="none" d="M 25 0.5 L 39.070446878342864 0.5 L 39.070446878342864 -0.5 L 25 -0.5 Z M 98.26185312834286 0.5 L 112.33230000668573 0.5 L 112.33230000668573 3.5 L 119.33230000668573 0 L 112.33230000668573 -3.5 L 112.33230000668573 -0.5 L 98.26185312834286 -0.5 Z"/><text text-anchor="middle" pointer-events="none" font-size="8px" fill="#000000" x="68.66615000334286" y="3" transform="rotate(180 68.66615000334286 0)" font-family="sans-serif">DESTINATION</text></g><g class="relationship" transform="translate(265.4346320459165 146.27648894579727) rotate(202.95372015589146)"><path class="outline" fill="#A5ABB6" stroke="none" d="M 25 0.5 L 73.19538506367796 0.5 L 73.19538506367796 -0.5 L 25 -0.5 Z M 107.64069756367796 0.5 L 155.83608262735592 0.5 L 155.83608262735592 3.5 L 162.83608262735592 0 L 155.83608262735592 -3.5 L 155.83608262735592 -0.5 L 107.64069756367796 -0.5 Z"/><text text-anchor="middle" pointer-events="none" font-size="8px" fill="#000000" x="90.41804131367796" y="3" transform="rotate(180 90.41804131367796 0)" font-family="sans-serif">ORIGIN</text></g><g class="relationship" transform="translate(265.4346320459165 146.27648894579727) rotate(380.8882340581156)"><path class="outline" fill="#A5ABB6" stroke="none" d="M 25 0.5 L 25.678505198769997 0.5 L 25.678505198769997 -0.5 L 25 -0.5 Z M 69.01444269877 0.5 L 69.69294789754 0.5 L 69.69294789754 3.5 L 76.69294789754 0 L 69.69294789754 -3.5 L 69.69294789754 -0.5 L 69.01444269877 -0.5 Z"/><text text-anchor="middle" pointer-events="none" font-size="8px" fill="#000000" x="47.34647394877" y="3" font-family="sans-serif">DESTIN…</text></g><g class="relationship" transform="translate(238.97911689442964 2.0434263563214867) rotate(514.1509696357507)"><path class="outline" fill="#A5ABB6" stroke="none" d="M 25 0.5 L 60.67541495465083 0.5 L 60.67541495465083 -0.5 L 25 -0.5 Z M 95.12072745465083 0.5 L 130.79614240930167 0.5 L 130.79614240930167 3.5 L 137.79614240930167 0 L 130.79614240930167 -3.5 L 130.79614240930167 -0.5 L 95.12072745465083 -0.5 Z"/><text text-anchor="middle" pointer-events="none" font-size="8px" fill="#000000" x="77.89807120465083" y="3" transform="rotate(180 77.89807120465083 0)" font-family="sans-serif">ORIGIN</text></g><g class="relationship" transform="translate(238.97911689442964 2.0434263563214867) rotate(333.0597303982072)"><path class="outline" fill="#A5ABB6" stroke="none" d="M 25 0.5 L 42.34025783574066 0.5 L 42.34025783574066 -0.5 L 25 -0.5 Z M 101.53166408574066 0.5 L 118.87192192148132 0.5 L 118.87192192148132 3.5 L 125.87192192148132 0 L 118.87192192148132 -3.5 L 118.87192192148132 -0.5 L 101.53166408574066 -0.5 Z"/><text text-anchor="middle" pointer-events="none" font-size="8px" fill="#000000" x="71.93596096074066" y="3" font-family="sans-serif">DESTINATION</text></g><g class="relationship" transform="translate(-36.29671624700944 64.48040987364661) rotate(363.7953890993616)"><path class="outline" fill="#A5ABB6" stroke="none" d="M 25 0.5 L 43.8029095801116 0.5 L 43.8029095801116 -0.5 L 25 -0.5 Z M 78.2482220801116 0.5 L 97.0511316602232 0.5 L 97.0511316602232 3.5 L 104.0511316602232 0 L 97.0511316602232 -3.5 L 97.0511316602232 -0.5 L 78.2482220801116 -0.5 Z"/><text text-anchor="middle" pointer-events="none" font-size="8px" fill="#000000" x="61.0255658301116" y="3" font-family="sans-serif">ORIGIN</text></g><g class="relationship" transform="translate(-36.29671624700944 64.48040987364661) rotate(533.0105012387813)"><path class="outline" fill="#A5ABB6" stroke="none" d="M 25 0.5 L 44.866058671438935 0.5 L 44.866058671438935 -0.5 L 25 -0.5 Z M 104.05746492143894 0.5 L 123.92352359287787 0.5 L 123.92352359287787 3.5 L 130.92352359287787 0 L 123.92352359287787 -3.5 L 123.92352359287787 -0.5 L 104.05746492143894 -0.5 Z"/><text text-anchor="middle" pointer-events="none" font-size="8px" fill="#000000" x="74.46176179643894" y="3" transform="rotate(180 74.46176179643894 0)" font-family="sans-serif">DESTINATION</text></g><g class="relationship" transform="translate(94.63242155053123 235.7910718286779) rotate(269.2393404132064)"><path class="outline" fill="#A5ABB6" stroke="none" d="M 25 0.5 L 60.668667731541134 0.5 L 60.668667731541134 -0.5 L 25 -0.5 Z M 95.11398023154113 0.5 L 130.78264796308227 0.5 L 130.78264796308227 3.5 L 137.78264796308227 0 L 130.78264796308227 -3.5 L 130.78264796308227 -0.5 L 95.11398023154113 -0.5 Z"/><text text-anchor="middle" pointer-events="none" font-size="8px" fill="#000000" x="77.89132398154113" y="3" transform="rotate(180 77.89132398154113 0)" font-family="sans-serif">ORIGIN</text></g><g class="relationship" transform="translate(94.63242155053123 235.7910718286779) rotate(472.0333010573038)"><path class="outline" fill="#A5ABB6" stroke="none" d="M 25 0.5 L 36.03840448992297 0.5 L 36.03840448992297 -0.5 L 25 -0.5 Z M 95.22981073992297 0.5 L 106.26821522984594 0.5 L 106.26821522984594 3.5 L 113.26821522984594 0 L 106.26821522984594 -3.5 L 106.26821522984594 -0.5 L 95.22981073992297 -0.5 Z"/><text text-anchor="middle" pointer-events="none" font-size="8px" fill="#000000" x="65.63410761492297" y="3" transform="rotate(180 65.63410761492297 0)" font-family="sans-serif">DESTINATION</text></g><g class="relationship" transform="translate(118.17919297308474 -101.23149482617903) rotate(458.39233539147006)"><path class="outline" fill="#A5ABB6" stroke="none" d="M 25 0.5 L 67.3475431997775 0.5 L 67.3475431997775 -0.5 L 25 -0.5 Z M 101.7928556997775 0.5 L 144.140398899555 0.5 L 144.140398899555 3.5 L 151.140398899555 0 L 144.140398899555 -3.5 L 144.140398899555 -0.5 L 101.7928556997775 -0.5 Z"/><text text-anchor="middle" pointer-events="none" font-size="8px" fill="#000000" x="84.5701994497775" y="3" transform="rotate(180 84.5701994497775 0)" font-family="sans-serif">ORIGIN</text></g><g class="relationship" transform="translate(118.17919297308474 -101.23149482617903) rotate(252.01225929311306)"><path class="outline" fill="#A5ABB6" stroke="none" d="M 25 0.5 L 25.855571643267666 0.5 L 25.855571643267666 -0.5 L 25 -0.5 Z M 69.19150914326767 0.5 L 70.04708078653533 0.5 L 70.04708078653533 3.5 L 77.04708078653533 0 L 70.04708078653533 -3.5 L 70.04708078653533 -0.5 L 69.19150914326767 -0.5 Z"/><text text-anchor="middle" pointer-events="none" font-size="8px" fill="#000000" x="47.523540393267666" y="3" transform="rotate(180 47.523540393267666 0)" font-family="sans-serif">DESTIN…</text></g><g class="relationship" transform="translate(215.12385615135918 114.54094975968142) rotate(198.7010930737897)"><path class="outline" fill="#A5ABB6" stroke="none" d="M 25 0.5 L 44.021820667407994 0.5 L 44.021820667407994 -0.5 L 25 -0.5 Z M 78.467133167408 0.5 L 97.48895383481599 0.5 L 97.48895383481599 3.5 L 104.48895383481599 0 L 97.48895383481599 -3.5 L 97.48895383481599 -0.5 L 78.467133167408 -0.5 Z"/><text text-anchor="middle" pointer-events="none" font-size="8px" fill="#000000" x="61.244476917407994" y="3" transform="rotate(180 61.244476917407994 0)" font-family="sans-serif">ORIGIN</text></g><g class="relationship" transform="translate(215.12385615135918 114.54094975968142) rotate(385.07438658975855)"><path class="outline" fill="#A5ABB6" stroke="none" d="M 25 0.5 L 47.124496839958866 0.5 L 47.124496839958866 -0.5 L 25 -0.5 Z M 106.31590308995887 0.5 L 128.44039992991773 0.5 L 128.44039992991773 3.5 L 135.44039992991773 0 L 128.44039992991773 -3.5 L 128.44039992991773 -0.5 L 106.31590308995887 -0.5 Z"/><text text-anchor="middle" pointer-events="none" font-size="8px" fill="#000000" x="76.72019996495887" y="3" font-family="sans-serif">DESTINATION</text></g><g class="relationship" transform="translate(266.4069129067 83.71443558745639) rotate(183.51749615121332)"><path class="outline" fill="#A5ABB6" stroke="none" d="M 25 0.5 L 66.40925702591801 0.5 L 66.40925702591801 -0.5 L 25 -0.5 Z M 100.85456952591801 0.5 L 142.26382655183602 0.5 L 142.26382655183602 3.5 L 149.26382655183602 0 L 142.26382655183602 -3.5 L 142.26382655183602 -0.5 L 100.85456952591801 -0.5 Z"/><text text-anchor="middle" pointer-events="none" font-size="8px" fill="#000000" x="83.63191327591801" y="3" transform="rotate(180 83.63191327591801 0)" font-family="sans-serif">ORIGIN</text></g><g class="relationship" transform="translate(266.4069129067 83.71443558745639) rotate(406.4207164292824)"><path class="outline" fill="#A5ABB6" stroke="none" d="M 25 0.5 L 35.11067168666301 0.5 L 35.11067168666301 -0.5 L 25 -0.5 Z M 94.30207793666301 0.5 L 104.41274962332602 0.5 L 104.41274962332602 3.5 L 111.41274962332602 0 L 104.41274962332602 -3.5 L 104.41274962332602 -0.5 L 94.30207793666301 -0.5 Z"/><text text-anchor="middle" pointer-events="none" font-size="8px" fill="#000000" x="64.70637481166301" y="3" font-family="sans-serif">DESTINATION</text></g><g class="relationship" transform="translate(-90.82588209761352 88.15306291513326) rotate(355.28121127928375)"><path class="outline" fill="#A5ABB6" stroke="none" d="M 25 0.5 L 71.23767784129834 0.5 L 71.23767784129834 -0.5 L 25 -0.5 Z M 105.68299034129834 0.5 L 151.92066818259667 0.5 L 151.92066818259667 3.5 L 158.92066818259667 0 L 151.92066818259667 -3.5 L 151.92066818259667 -0.5 L 105.68299034129834 -0.5 Z"/><text text-anchor="middle" pointer-events="none" font-size="8px" fill="#000000" x="88.46033409129834" y="3" font-family="sans-serif">ORIGIN</text></g><g class="relationship" transform="translate(-90.82588209761352 88.15306291513326) rotate(182.6838759112402)"><path class="outline" fill="#A5ABB6" stroke="none" d="M 25 0.5 L 25.004870039779668 0.5 L 25.004870039779668 -0.5 L 25 -0.5 Z M 68.34080753977966 0.5 L 68.34567757955934 0.5 L 68.34567757955934 3.5 L 75.34567757955934 0 L 68.34567757955934 -3.5 L 68.34567757955934 -0.5 L 68.34080753977966 -0.5 Z"/><text text-anchor="middle" pointer-events="none" font-size="8px" fill="#000000" x="46.67283878977967" y="3" transform="rotate(180 46.67283878977967 0)" font-family="sans-serif">DESTIN…</text></g><g class="relationship" transform="translate(147.61027362487712 -49.17374841007653) rotate(474.2863862596556)"><path class="outline" fill="#A5ABB6" stroke="none" d="M 25 0.5 L 46.30772202629706 0.5 L 46.30772202629706 -0.5 L 25 -0.5 Z M 80.75303452629706 0.5 L 102.06075655259411 0.5 L 102.06075655259411 3.5 L 109.06075655259411 0 L 102.06075655259411 -3.5 L 102.06075655259411 -0.5 L 80.75303452629706 -0.5 Z"/><text text-anchor="middle" pointer-events="none" font-size="8px" fill="#000000" x="63.53037827629706" y="3" transform="rotate(180 63.53037827629706 0)" font-family="sans-serif">ORIGIN</text></g><g class="relationship" transform="translate(147.61027362487712 -49.17374841007653) rotate(247.77001233734165)"><path class="outline" fill="#A5ABB6" stroke="none" d="M 25 0.5 L 47.4495220898568 0.5 L 47.4495220898568 -0.5 L 25 -0.5 Z M 106.6409283398568 0.5 L 129.0904504297136 0.5 L 129.0904504297136 3.5 L 136.0904504297136 0 L 129.0904504297136 -3.5 L 129.0904504297136 -0.5 L 106.6409283398568 -0.5 Z"/><text text-anchor="middle" pointer-events="none" font-size="8px" fill="#000000" x="77.0452252148568" y="3" transform="rotate(180 77.0452252148568 0)" font-family="sans-serif">DESTINATION</text></g><g class="relationship" transform="translate(-77.86397910279567 21.387025469098713) rotate(376.8642422671804)"><path class="outline" fill="#A5ABB6" stroke="none" d="M 25 0.5 L 68.27226589869386 0.5 L 68.27226589869386 -0.5 L 25 -0.5 Z M 102.71757839869386 0.5 L 145.98984429738772 0.5 L 145.98984429738772 3.5 L 152.98984429738772 0 L 145.98984429738772 -3.5 L 145.98984429738772 -0.5 L 102.71757839869386 -0.5 Z"/><text text-anchor="middle" pointer-events="none" font-size="8px" fill="#000000" x="85.49492214869386" y="3" font-family="sans-serif">ORIGIN</text></g><g class="relationship" transform="translate(-77.86397910279567 21.387025469098713) rotate(511.26360487990377)"><path class="outline" fill="#A5ABB6" stroke="none" d="M 25 0.5 L 31.452782929518747 0.5 L 31.452782929518747 -0.5 L 25 -0.5 Z M 90.64418917951875 0.5 L 97.0969721090375 0.5 L 97.0969721090375 3.5 L 104.0969721090375 0 L 97.0969721090375 -3.5 L 97.0969721090375 -0.5 L 90.64418917951875 -0.5 Z"/><text text-anchor="middle" pointer-events="none" font-size="8px" fill="#000000" x="61.04848605451875" y="3" transform="rotate(180 61.04848605451875 0)" font-family="sans-serif">DESTINATION</text></g><g class="relationship" transform="translate(178.0615576873962 -100.36312336394809) rotate(476.2727800887637)"><path class="outline" fill="#A5ABB6" stroke="none" d="M 25 0.5 L 75.95767547438619 0.5 L 75.95767547438619 -0.5 L 25 -0.5 Z M 110.40298797438619 0.5 L 161.36066344877239 0.5 L 161.36066344877239 3.5 L 168.36066344877239 0 L 161.36066344877239 -3.5 L 161.36066344877239 -0.5 L 110.40298797438619 -0.5 Z"/><text text-anchor="middle" pointer-events="none" font-size="8px" fill="#000000" x="93.18033172438619" y="3" transform="rotate(180 93.18033172438619 0)" font-family="sans-serif">ORIGIN</text></g><g class="relationship" transform="translate(178.0615576873962 -100.36312336394809) rotate(226.97595552742354)"><path class="outline" fill="#A5ABB6" stroke="none" d="M 25 0.5 L 33.88010047162271 0.5 L 33.88010047162271 -0.5 L 25 -0.5 Z M 93.07150672162271 0.5 L 101.95160719324542 0.5 L 101.95160719324542 3.5 L 108.95160719324542 0 L 101.95160719324542 -3.5 L 101.95160719324542 -0.5 L 93.07150672162271 -0.5 Z"/><text text-anchor="middle" pointer-events="none" font-size="8px" fill="#000000" x="63.47580359662271" y="3" transform="rotate(180 63.47580359662271 0)" font-family="sans-serif">DESTINATION</text></g><g class="relationship" transform="translate(35.65907026159799 225.92328812378034) rotate(290.3832476128559)"><path class="outline" fill="#A5ABB6" stroke="none" d="M 25 0.5 L 60.83439018344218 0.5 L 60.83439018344218 -0.5 L 25 -0.5 Z M 95.27970268344218 0.5 L 131.11409286688436 0.5 L 131.11409286688436 3.5 L 138.11409286688436 0 L 131.11409286688436 -3.5 L 131.11409286688436 -0.5 L 95.27970268344218 -0.5 Z"/><text text-anchor="middle" pointer-events="none" font-size="8px" fill="#000000" x="78.05704643344218" y="3" font-family="sans-serif">ORIGIN</text></g><g class="relationship" transform="translate(35.65907026159799 225.92328812378034) rotate(447.05447121137945)"><path class="outline" fill="#A5ABB6" stroke="none" d="M 25 0.5 L 36.014459599182445 0.5 L 36.014459599182445 -0.5 L 25 -0.5 Z M 95.20586584918244 0.5 L 106.22032544836489 0.5 L 106.22032544836489 3.5 L 113.22032544836489 0 L 106.22032544836489 -3.5 L 106.22032544836489 -0.5 L 95.20586584918244 -0.5 Z"/><text text-anchor="middle" pointer-events="none" font-size="8px" fill="#000000" x="65.61016272418244" y="3" font-family="sans-serif">DESTINATION</text></g><g class="relationship" transform="translate(87.74487426375237 -49.89574713157252) rotate(447.79792742576365)"><path class="outline" fill="#A5ABB6" stroke="none" d="M 25 0.5 L 40.78202139251904 0.5 L 40.78202139251904 -0.5 L 25 -0.5 Z M 75.22733389251904 0.5 L 91.00935528503808 0.5 L 91.00935528503808 3.5 L 98.00935528503808 0 L 91.00935528503808 -3.5 L 91.00935528503808 -0.5 L 75.22733389251904 -0.5 Z"/><text text-anchor="middle" pointer-events="none" font-size="8px" fill="#000000" x="58.00467764251904" y="3" font-family="sans-serif">ORIGIN</text></g><g class="relationship" transform="translate(87.74487426375237 -49.89574713157252) rotate(269.58332609617116)"><path class="outline" fill="#A5ABB6" stroke="none" d="M 25 0.5 L 41.103775881824035 0.5 L 41.103775881824035 -0.5 L 25 -0.5 Z M 100.29518213182403 0.5 L 116.39895801364807 0.5 L 116.39895801364807 3.5 L 123.39895801364807 0 L 116.39895801364807 -3.5 L 116.39895801364807 -0.5 L 100.29518213182403 -0.5 Z"/><text text-anchor="middle" pointer-events="none" font-size="8px" fill="#000000" x="70.69947900682403" y="3" transform="rotate(180 70.69947900682403 0)" font-family="sans-serif">DESTINATION</text></g><g class="relationship" transform="translate(55.457487866130684 -100.14201387550303) rotate(437.9346180576666)"><path class="outline" fill="#A5ABB6" stroke="none" d="M 25 0.5 L 67.81557036507344 0.5 L 67.81557036507344 -0.5 L 25 -0.5 Z M 102.26088286507344 0.5 L 145.07645323014688 0.5 L 145.07645323014688 3.5 L 152.07645323014688 0 L 145.07645323014688 -3.5 L 145.07645323014688 -0.5 L 102.26088286507344 -0.5 Z"/><text text-anchor="middle" pointer-events="none" font-size="8px" fill="#000000" x="85.03822661507344" y="3" font-family="sans-serif">ORIGIN</text></g><g class="relationship" transform="translate(55.457487866130684 -100.14201387550303) rotate(287.6390107333948)"><path class="outline" fill="#A5ABB6" stroke="none" d="M 25 0.5 L 26.32749604325943 0.5 L 26.32749604325943 -0.5 L 25 -0.5 Z M 69.66343354325943 0.5 L 70.99092958651886 0.5 L 70.99092958651886 3.5 L 77.99092958651886 0 L 70.99092958651886 -3.5 L 70.99092958651886 -0.5 L 69.66343354325943 -0.5 Z"/><text text-anchor="middle" pointer-events="none" font-size="8px" fill="#000000" x="47.99546479325943" y="3" font-family="sans-serif">DESTIN…</text></g><g class="relationship" transform="translate(27.81232632204952 -47.265782835972665) rotate(421.74050797376754)"><path class="outline" fill="#A5ABB6" stroke="none" d="M 25 0.5 L 47.56008128487892 0.5 L 47.56008128487892 -0.5 L 25 -0.5 Z M 82.00539378487892 0.5 L 104.56547506975784 0.5 L 104.56547506975784 3.5 L 111.56547506975784 0 L 104.56547506975784 -3.5 L 104.56547506975784 -0.5 L 82.00539378487892 -0.5 Z"/><text text-anchor="middle" pointer-events="none" font-size="8px" fill="#000000" x="64.78273753487892" y="3" font-family="sans-serif">ORIGIN</text></g><g class="relationship" transform="translate(27.81232632204952 -47.265782835972665) rotate(291.29050337191063)"><path class="outline" fill="#A5ABB6" stroke="none" d="M 25 0.5 L 47.94790704102002 0.5 L 47.94790704102002 -0.5 L 25 -0.5 Z M 107.13931329102002 0.5 L 130.08722033204003 0.5 L 130.08722033204003 3.5 L 137.08722033204003 0 L 130.08722033204003 -3.5 L 130.08722033204003 -0.5 L 107.13931329102002 -0.5 Z"/><text text-anchor="middle" pointer-events="none" font-size="8px" fill="#000000" x="77.54361016602002" y="3" font-family="sans-serif">DESTINATION</text></g><g class="relationship" transform="translate(-13.346402551428683 189.40271661852503) rotate(312.27849483730256)"><path class="outline" fill="#A5ABB6" stroke="none" d="M 25 0.5 L 57.92480930121076 0.5 L 57.92480930121076 -0.5 L 25 -0.5 Z M 92.37012180121076 0.5 L 125.29493110242151 0.5 L 125.29493110242151 3.5 L 132.29493110242151 0 L 125.29493110242151 -3.5 L 125.29493110242151 -0.5 L 92.37012180121076 -0.5 Z"/><text text-anchor="middle" pointer-events="none" font-size="8px" fill="#000000" x="75.14746555121076" y="3" font-family="sans-serif">ORIGIN</text></g><g class="relationship" transform="translate(-13.346402551428683 189.40271661852503) rotate(494.35523260447457)"><path class="outline" fill="#A5ABB6" stroke="none" d="M 25 0.5 L 43.33011395090924 0.5 L 43.33011395090924 -0.5 L 25 -0.5 Z M 102.52152020090924 0.5 L 120.85163415181847 0.5 L 120.85163415181847 3.5 L 127.85163415181847 0 L 120.85163415181847 -3.5 L 120.85163415181847 -0.5 L 102.52152020090924 -0.5 Z"/><text text-anchor="middle" pointer-events="none" font-size="8px" fill="#000000" x="72.92581707590924" y="3" transform="rotate(180 72.92581707590924 0)" font-family="sans-serif">DESTINATION</text></g><g class="relationship" transform="translate(219.13238983403528 184.11530183424213) rotate(221.25353066192042)"><path class="outline" fill="#A5ABB6" stroke="none" d="M 25 0.5 L 63.515936709868754 0.5 L 63.515936709868754 -0.5 L 25 -0.5 Z M 97.96124920986875 0.5 L 136.4771859197375 0.5 L 136.4771859197375 3.5 L 143.4771859197375 0 L 136.4771859197375 -3.5 L 136.4771859197375 -0.5 L 97.96124920986875 -0.5 Z"/><text text-anchor="middle" pointer-events="none" font-size="8px" fill="#000000" x="80.73859295986875" y="3" transform="rotate(180 80.73859295986875 0)" font-family="sans-serif">ORIGIN</text></g><g class="relationship" transform="translate(219.13238983403528 184.11530183424213) rotate(359.3591683092893)"><path class="outline" fill="#A5ABB6" stroke="none" d="M 25 0.5 L 37.56456494781317 0.5 L 37.56456494781317 -0.5 L 25 -0.5 Z M 96.75597119781317 0.5 L 109.32053614562633 0.5 L 109.32053614562633 3.5 L 116.32053614562633 0 L 109.32053614562633 -3.5 L 109.32053614562633 -0.5 L 96.75597119781317 -0.5 Z"/><text text-anchor="middle" pointer-events="none" font-size="8px" fill="#000000" x="67.16026807281317" y="3" font-family="sans-serif">DESTINATION</text></g><g class="relationship" transform="translate(-4.421212997054559 -97.37357341439746) rotate(420.3761101308732)"><path class="outline" fill="#A5ABB6" stroke="none" d="M 25 0.5 L 77.28638436325417 0.5 L 77.28638436325417 -0.5 L 25 -0.5 Z M 111.73169686325417 0.5 L 164.01808122650834 0.5 L 164.01808122650834 3.5 L 171.01808122650834 0 L 164.01808122650834 -3.5 L 164.01808122650834 -0.5 L 111.73169686325417 -0.5 Z"/><text text-anchor="middle" pointer-events="none" font-size="8px" fill="#000000" x="94.50904061325417" y="3" font-family="sans-serif">ORIGIN</text></g><g class="relationship" transform="translate(-4.421212997054559 -97.37357341439746) rotate(312.06910251807807)"><path class="outline" fill="#A5ABB6" stroke="none" d="M 25 0.5 L 34.876909703074716 0.5 L 34.876909703074716 -0.5 L 25 -0.5 Z M 94.06831595307472 0.5 L 103.94522565614943 0.5 L 103.94522565614943 3.5 L 110.94522565614943 0 L 103.94522565614943 -3.5 L 103.94522565614943 -0.5 L 94.06831595307472 -0.5 Z"/><text text-anchor="middle" pointer-events="none" font-size="8px" fill="#000000" x="64.47261282807472" y="3" font-family="sans-serif">DESTINATION</text></g><g class="relationship" transform="translate(154.9060306166678 222.40040470463077) rotate(247.31677078044208)"><path class="outline" fill="#A5ABB6" stroke="none" d="M 25 0.5 L 60.227580912993076 0.5 L 60.227580912993076 -0.5 L 25 -0.5 Z M 94.67289341299308 0.5 L 129.90047432598615 0.5 L 129.90047432598615 3.5 L 136.90047432598615 0 L 129.90047432598615 -3.5 L 129.90047432598615 -0.5 L 94.67289341299308 -0.5 Z"/><text text-anchor="middle" pointer-events="none" font-size="8px" fill="#000000" x="77.45023716299308" y="3" transform="rotate(180 77.45023716299308 0)" font-family="sans-serif">ORIGIN</text></g><g class="relationship" transform="translate(154.9060306166678 222.40040470463077) rotate(427.0772355097322)"><path class="outline" fill="#A5ABB6" stroke="none" d="M 25 0.5 L 43.967925590257764 0.5 L 43.967925590257764 -0.5 L 25 -0.5 Z M 103.15933184025776 0.5 L 122.12725743051553 0.5 L 122.12725743051553 3.5 L 129.12725743051553 0 L 122.12725743051553 -3.5 L 122.12725743051553 -0.5 L 103.15933184025776 -0.5 Z"/><text text-anchor="middle" pointer-events="none" font-size="8px" fill="#000000" x="73.56362871525776" y="3" font-family="sans-serif">DESTINATION</text></g></g><g class="layer nodes"><g class="node" transform="translate(92.47138027503499,73.0227690837074)"><circle class="outline" cx="0" cy="0" r="25" fill="#ECB5C9" stroke="#da7298" stroke-width="2px"/><text text-anchor="middle" pointer-events="none" font-family="sans-serif" dy="1.5625" font-size="25" fill="#2A2C34"/><text text-anchor="middle" pointer-events="none" x="0" y="5" font-size="10px" fill="#2A2C34" font-family="sans-serif"> LAX</text></g><g class="node" transform="translate(-191.06148970381645,83.45434216197172)"><circle class="outline" cx="0" cy="0" r="25" fill="#ECB5C9" stroke="#da7298" stroke-width="2px"/><text text-anchor="middle" pointer-events="none" font-family="sans-serif" dy="1.5625" font-size="25" fill="#2A2C34"/><text text-anchor="middle" pointer-events="none" x="0" y="5" font-size="10px" fill="#2A2C34" font-family="sans-serif"> SMF</text></g><g class="node" transform="translate(360.4440867697076,182.53471787634032)"><circle class="outline" cx="0" cy="0" r="25" fill="#ECB5C9" stroke="#da7298" stroke-width="2px"/><text text-anchor="middle" pointer-events="none" font-family="sans-serif" dy="1.5625" font-size="25" fill="#2A2C34"/><text text-anchor="middle" pointer-events="none" x="0" y="5" font-size="10px" fill="#2A2C34" font-family="sans-serif"> FAT</text></g><g class="node" transform="translate(373.47831547474266,-66.31081568859538)"><circle class="outline" cx="0" cy="0" r="25" fill="#ECB5C9" stroke="#da7298" stroke-width="2px"/><text text-anchor="middle" pointer-events="none" font-family="sans-serif" dy="1.5625" font-size="25" fill="#2A2C34"/><text text-anchor="middle" pointer-events="none" x="0" y="5" font-size="10px" fill="#2A2C34" font-family="sans-serif"> LAS</text></g><g class="node" transform="translate(42.76173366669005,363.9610023166989)"><circle class="outline" cx="0" cy="0" r="25" fill="#ECB5C9" stroke="#da7298" stroke-width="2px"/><text text-anchor="middle" pointer-events="none" font-family="sans-serif" dy="1.5625" font-size="25" fill="#2A2C34"/><text text-anchor="middle" pointer-events="none" x="0" y="5" font-size="10px" fill="#2A2C34" font-family="sans-serif"> TUS</text></g><g class="node" transform="translate(86.66567735513121,-198.29078098907365)"><circle class="outline" cx="0" cy="0" r="25" fill="#ECB5C9" stroke="#da7298" stroke-width="2px"/><text text-anchor="middle" pointer-events="none" font-family="sans-serif" dy="1.5625" font-size="25" fill="#2A2C34"/><text text-anchor="middle" pointer-events="none" x="0" y="5" font-size="10px" fill="#2A2C34" font-family="sans-serif"> ABQ</text></g><g class="node" transform="translate(-120.20572621259151,298.6945599077669)"><circle class="outline" cx="0" cy="0" r="25" fill="#ECB5C9" stroke="#da7298" stroke-width="2px"/><text text-anchor="middle" pointer-events="none" font-family="sans-serif" dy="1.5625" font-size="25" fill="#2A2C34"/><text text-anchor="middle" pointer-events="none" x="0" y="5" font-size="10px" fill="#2A2C34" font-family="sans-serif"> EWR</text></g><g class="node" transform="translate(214.93704385708008,364.35634481416565)"><circle class="outline" cx="0" cy="0" r="25" fill="#ECB5C9" stroke="#da7298" stroke-width="2px"/><text text-anchor="middle" pointer-events="none" font-family="sans-serif" dy="1.5625" font-size="25" fill="#2A2C34"/><text text-anchor="middle" pointer-events="none" x="0" y="5" font-size="10px" fill="#2A2C34" font-family="sans-serif"> IAH</text></g><g class="node" transform="translate(-57.25660058442696,137.56593493993216)"><circle class="outline" cx="0" cy="0" r="25" fill="#4C8EDA" stroke="#2870c2" stroke-width="2px"/><text text-anchor="middle" pointer-events="none" font-family="sans-serif" dy="1.5625" font-size="25" fill="#FFFFFF"/><text text-anchor="middle" pointer-events="none" x="0" y="5" font-size="10px" fill="#FFFFFF" font-family="sans-serif"> 11/4/2015</text></g><g class="node" transform="translate(265.4346320459165,146.27648894579727)"><circle class="outline" cx="0" cy="0" r="25" fill="#4C8EDA" stroke="#2870c2" stroke-width="2px"/><text text-anchor="middle" pointer-events="none" font-family="sans-serif" dy="1.5625" font-size="25" fill="#FFFFFF"/><text text-anchor="middle" pointer-events="none" x="0" y="5" font-size="10px" fill="#FFFFFF" font-family="sans-serif"> 11/4/2015</text></g><g class="node" transform="translate(238.97911689442964,2.0434263563214867)"><circle class="outline" cx="0" cy="0" r="25" fill="#4C8EDA" stroke="#2870c2" stroke-width="2px"/><text text-anchor="middle" pointer-events="none" font-family="sans-serif" dy="1.5625" font-size="25" fill="#FFFFFF"/><text text-anchor="middle" pointer-events="none" x="0" y="5" font-size="10px" fill="#FFFFFF" font-family="sans-serif"> 11/29/20…</text></g><g class="node" transform="translate(-36.29671624700944,64.48040987364661)"><circle class="outline" cx="0" cy="0" r="25" fill="#4C8EDA" stroke="#2870c2" stroke-width="2px"/><text text-anchor="middle" pointer-events="none" font-family="sans-serif" dy="1.5625" font-size="25" fill="#FFFFFF"/><text text-anchor="middle" pointer-events="none" x="0" y="5" font-size="10px" fill="#FFFFFF" font-family="sans-serif"> 11/2/2015</text></g><g class="node" transform="translate(94.63242155053123,235.7910718286779)"><circle class="outline" cx="0" cy="0" r="25" fill="#4C8EDA" stroke="#2870c2" stroke-width="2px"/><text text-anchor="middle" pointer-events="none" font-family="sans-serif" dy="1.5625" font-size="25" fill="#FFFFFF"/><text text-anchor="middle" pointer-events="none" x="0" y="5" font-size="10px" fill="#FFFFFF" font-family="sans-serif"> 11/1/2015</text></g><g class="node" transform="translate(118.17919297308474,-101.23149482617903)"><circle class="outline" cx="0" cy="0" r="25" fill="#4C8EDA" stroke="#2870c2" stroke-width="2px"/><text text-anchor="middle" pointer-events="none" font-family="sans-serif" dy="1.5625" font-size="25" fill="#FFFFFF"/><text text-anchor="middle" pointer-events="none" x="0" y="5" font-size="10px" fill="#FFFFFF" font-family="sans-serif"> 11/2/2015</text></g><g class="node" transform="translate(215.12385615135918,114.54094975968142)"><circle class="outline" cx="0" cy="0" r="25" fill="#4C8EDA" stroke="#2870c2" stroke-width="2px"/><text text-anchor="middle" pointer-events="none" font-family="sans-serif" dy="1.5625" font-size="25" fill="#FFFFFF"/><text text-anchor="middle" pointer-events="none" x="0" y="5" font-size="10px" fill="#FFFFFF" font-family="sans-serif"> 11/3/2015</text></g><g class="node" transform="translate(266.4069129067,83.71443558745639)"><circle class="outline" cx="0" cy="0" r="25" fill="#4C8EDA" stroke="#2870c2" stroke-width="2px"/><text text-anchor="middle" pointer-events="none" font-family="sans-serif" dy="1.5625" font-size="25" fill="#FFFFFF"/><text text-anchor="middle" pointer-events="none" x="0" y="5" font-size="10px" fill="#FFFFFF" font-family="sans-serif"> 11/1/2015</text></g><g class="node" transform="translate(-90.82588209761352,88.15306291513326)"><circle class="outline" cx="0" cy="0" r="25" fill="#4C8EDA" stroke="#2870c2" stroke-width="2px"/><text text-anchor="middle" pointer-events="none" font-family="sans-serif" dy="1.5625" font-size="25" fill="#FFFFFF"/><text text-anchor="middle" pointer-events="none" x="0" y="5" font-size="10px" fill="#FFFFFF" font-family="sans-serif"> 11/1/2015</text></g><g class="node" transform="translate(147.61027362487712,-49.17374841007653)"><circle class="outline" cx="0" cy="0" r="25" fill="#4C8EDA" stroke="#2870c2" stroke-width="2px"/><text text-anchor="middle" pointer-events="none" font-family="sans-serif" dy="1.5625" font-size="25" fill="#FFFFFF"/><text text-anchor="middle" pointer-events="none" x="0" y="5" font-size="10px" fill="#FFFFFF" font-family="sans-serif"> 11/3/2015</text></g><g class="node" transform="translate(-77.86397910279567,21.387025469098713)"><circle class="outline" cx="0" cy="0" r="25" fill="#4C8EDA" stroke="#2870c2" stroke-width="2px"/><text text-anchor="middle" pointer-events="none" font-family="sans-serif" dy="1.5625" font-size="25" fill="#FFFFFF"/><text text-anchor="middle" pointer-events="none" x="0" y="5" font-size="10px" fill="#FFFFFF" font-family="sans-serif"> 11/3/2015</text></g><g class="node" transform="translate(178.0615576873962,-100.36312336394809)"><circle class="outline" cx="0" cy="0" r="25" fill="#4C8EDA" stroke="#2870c2" stroke-width="2px"/><text text-anchor="middle" pointer-events="none" font-family="sans-serif" dy="1.5625" font-size="25" fill="#FFFFFF"/><text text-anchor="middle" pointer-events="none" x="0" y="5" font-size="10px" fill="#FFFFFF" font-family="sans-serif"> 11/1/2015</text></g><g class="node" transform="translate(35.65907026159799,225.92328812378034)"><circle class="outline" cx="0" cy="0" r="25" fill="#4C8EDA" stroke="#2870c2" stroke-width="2px"/><text text-anchor="middle" pointer-events="none" font-family="sans-serif" dy="1.5625" font-size="25" fill="#FFFFFF"/><text text-anchor="middle" pointer-events="none" x="0" y="5" font-size="10px" fill="#FFFFFF" font-family="sans-serif"> 11/2/2015</text></g><g class="node" transform="translate(87.74487426375237,-49.89574713157252)"><circle class="outline" cx="0" cy="0" r="25" fill="#4C8EDA" stroke="#2870c2" stroke-width="2px"/><text text-anchor="middle" pointer-events="none" font-family="sans-serif" dy="1.5625" font-size="25" fill="#FFFFFF"/><text text-anchor="middle" pointer-events="none" x="0" y="5" font-size="10px" fill="#FFFFFF" font-family="sans-serif"> 11/1/2015</text></g><g class="node" transform="translate(55.457487866130684,-100.14201387550303)"><circle class="outline" cx="0" cy="0" r="25" fill="#4C8EDA" stroke="#2870c2" stroke-width="2px"/><text text-anchor="middle" pointer-events="none" font-family="sans-serif" dy="1.5625" font-size="25" fill="#FFFFFF"/><text text-anchor="middle" pointer-events="none" x="0" y="5" font-size="10px" fill="#FFFFFF" font-family="sans-serif"> 11/2/2015</text></g><g class="node" transform="translate(27.81232632204952,-47.265782835972665)"><circle class="outline" cx="0" cy="0" r="25" fill="#4C8EDA" stroke="#2870c2" stroke-width="2px"/><text text-anchor="middle" pointer-events="none" font-family="sans-serif" dy="1.5625" font-size="25" fill="#FFFFFF"/><text text-anchor="middle" pointer-events="none" x="0" y="5" font-size="10px" fill="#FFFFFF" font-family="sans-serif"> 11/4/2015</text></g><g class="node selected" transform="translate(-13.346402551428683,189.40271661852503)"><circle class="outline" cx="0" cy="0" r="25" fill="#4C8EDA" stroke="#2870c2" stroke-width="2px"/><text text-anchor="middle" pointer-events="none" font-family="sans-serif" dy="1.5625" font-size="25" fill="#FFFFFF"/><text text-anchor="middle" pointer-events="none" x="0" y="5" font-size="10px" fill="#FFFFFF" font-family="sans-serif"> 11/30/20…</text></g><g class="node" transform="translate(219.13238983403528,184.11530183424213)"><circle class="outline" cx="0" cy="0" r="25" fill="#4C8EDA" stroke="#2870c2" stroke-width="2px"/><text text-anchor="middle" pointer-events="none" font-family="sans-serif" dy="1.5625" font-size="25" fill="#FFFFFF"/><text text-anchor="middle" pointer-events="none" x="0" y="5" font-size="10px" fill="#FFFFFF" font-family="sans-serif"> 11/2/2015</text></g><g class="node" transform="translate(-4.421212997054559,-97.37357341439746)"><circle class="outline" cx="0" cy="0" r="25" fill="#4C8EDA" stroke="#2870c2" stroke-width="2px"/><text text-anchor="middle" pointer-events="none" font-family="sans-serif" dy="1.5625" font-size="25" fill="#FFFFFF"/><text text-anchor="middle" pointer-events="none" x="0" y="5" font-size="10px" fill="#FFFFFF" font-family="sans-serif"> 11/3/2015</text></g><g class="node" transform="translate(154.9060306166678,222.40040470463077)"><circle class="outline" cx="0" cy="0" r="25" fill="#4C8EDA" stroke="#2870c2" stroke-width="2px"/><text text-anchor="middle" pointer-events="none" font-family="sans-serif" dy="1.5625" font-size="25" fill="#FFFFFF"/><text text-anchor="middle" pointer-events="none" x="0" y="5" font-size="10px" fill="#FFFFFF" font-family="sans-serif"> 11/30/20…</text></g></g></svg>