<svg xmlns="http://www.w3.org/2000/svg" width="162.27061462402344" height="244.8264923095703" viewBox="-2.7008705139160156 -21.592069625854492 162.27061462402344 244.8264923095703"><title>Neo4j Graph Visualization</title><desc>Created using Neo4j (http://www.neo4j.com/)</desc><g class="layer relationships"><g class="relationship" transform="translate(28.365539220592385 39.501211531310744) rotate(342.5671195473042)"><path class="outline" fill="#A5ABB6" stroke="none" d="M 25 0.5 L 40.3943282123859 0.5 L 40.3943282123859 -0.5 L 25 -0.5 Z M 59.7302657123859 0.5 L 75.1245939247718 0.5 L 75.1245939247718 3.5 L 82.1245939247718 0 L 75.1245939247718 -3.5 L 75.1245939247718 -0.5 L 59.7302657123859 -0.5 Z"/><text text-anchor="middle" pointer-events="none" font-size="8px" fill="#000000" x="50.0622969623859" y="3" font-family="sans-serif">trek</text></g><g class="relationship" transform="translate(26.299130206626927 146.13398273241123) rotate(271.1101811999124)"><path class="outline" fill="#A5ABB6" stroke="none" d="M 25 0.5 L 40.15842701288473 0.5 L 40.15842701288473 -0.5 L 25 -0.5 Z M 59.49436451288473 0.5 L 74.65279152576946 0.5 L 74.65279152576946 3.5 L 81.65279152576946 0 L 74.65279152576946 -3.5 L 74.65279152576946 -0.5 L 59.49436451288473 -0.5 Z"/><text text-anchor="middle" pointer-events="none" font-size="8px" fill="#000000" x="49.82639576288473" y="3" font-family="sans-serif">trek</text></g><g class="relationship" transform="translate(122.15226500486361 194.23442348554946) rotate(206.64813644485616)"><path class="outline" fill="#A5ABB6" stroke="none" d="M 21.40063509461097,12.933012701892217 L 21.90063509461097,12.06698729810778 A 59.723208269391726 59.723208269391726 0 0 0 40.39998753634862,18.977593168831667 L 40.20973902120344,19.959329132563795 A 60.723208269391726 60.723208269391726 0 0 1 21.40063509461097,12.933012701892217 Z M 59.613322291478326,20.558696113150972 L 59.48402933601818,19.567089673242286 A 59.723208269391726 59.723208269391726 0 0 0 78.37463604629622,13.811440936418158 L 77.03784934704777,11.125737803026006 L 84.86407447408598,11.13988916040379 L 80.15701831196083,17.392378447607694 L 78.82023161271238,14.706675314215541 A 60.723208269391726 60.723208269391726 0 0 1 59.613322291478326,20.558696113150972"/><text text-anchor="middle" pointer-events="none" font-size="8px" fill="#000000" x="49.90286131411618" y="23.53966923091874" transform="rotate(180 49.90286131411618 20.53966923091874)" font-family="sans-serif">trek</text></g><g class="relationship" transform="translate(122.15226500486361 194.23442348554946) rotate(206.64813644485616)"><path class="outline" fill="#A5ABB6" stroke="none" d="M 25 0.5 L 39.11660758451029 0.5 L 39.11660758451029 -0.5 L 25 -0.5 Z M 61.12832633451029 0.5 L 75.24493391902058 0.5 L 75.24493391902058 3.5 L 82.24493391902058 0 L 75.24493391902058 -3.5 L 75.24493391902058 -0.5 L 61.12832633451029 -0.5 Z"/><text text-anchor="middle" pointer-events="none" font-size="8px" fill="#000000" x="50.12246695951029" y="3" transform="rotate(180 50.12246695951029 0)" font-family="sans-serif">road</text></g><g class="relationship" transform="translate(122.15226500486361 194.23442348554946) rotate(206.64813644485616)"><path class="outline" fill="#A5ABB6" stroke="none" d="M 21.40063509461097,-12.933012701892217 L 21.90063509461097,-12.06698729810778 A 59.723208269391726 59.723208269391726 0 0 1 23.37276649318885,-12.88943349988741 L 22.89741572823894,-13.769229868521393 A 60.723208269391726 60.723208269391726 0 0 0 21.40063509461097,-12.933012701892217 Z M 77.27469318195793,-15.448916766864329 L 76.85454980219006,-14.541459032070463 A 59.723208269391726 59.723208269391726 0 0 1 78.37463604629622,-13.811440936418158 L 77.03784934704777,-11.125737803026006 L 84.86407447408598,-11.13988916040379 L 80.15701831196083,-17.392378447607694 L 78.82023161271238,-14.706675314215541 A 60.723208269391726 60.723208269391726 0 0 0 77.27469318195793,-15.448916766864329"/><text text-anchor="middle" pointer-events="none" font-size="8px" fill="#000000" x="49.90286131411616" y="-17.539669230918733" transform="rotate(180 49.90286131411616 -20.539669230918733)" font-family="sans-serif">PublicTrans…</text></g></g><g class="layer nodes"><g class="node" transform="translate(130.5697463095837,7.407930663536707)"><circle class="outline" cx="0" cy="0" r="25" fill="#8DCC93" stroke="#5db665" stroke-width="2px"/><text text-anchor="middle" pointer-events="none" font-family="sans-serif" dy="1.5625" font-size="25" fill="#2A2C34"/><text text-anchor="middle" pointer-events="none" x="0" y="5" font-size="10px" fill="#2A2C34" font-family="sans-serif"> Sandak…</text></g><g class="node" transform="translate(122.15226500486361,194.23442348554946)"><circle class="outline" cx="0" cy="0" r="25" fill="#D9C8AE" stroke="#c0a378" stroke-width="2px"/><text text-anchor="middle" pointer-events="none" font-family="sans-serif" dy="1.5625" font-size="25" fill="#2A2C34"/><text text-anchor="middle" pointer-events="none" x="0" y="5" font-size="10px" fill="#2A2C34" font-family="sans-serif"> Darjeeling</text></g><g class="node" transform="translate(28.365539220592385,39.501211531310744)"><circle class="outline" cx="0" cy="0" r="25" fill="#F16667" stroke="#eb2728" stroke-width="2px"/><text text-anchor="middle" pointer-events="none" font-family="sans-serif" dy="1.5625" font-size="25" fill="#FFFFFF"/><text text-anchor="middle" pointer-events="none" x="0" y="5" font-size="10px" fill="#FFFFFF" font-family="sans-serif"> BhikeBh…</text></g><g class="node" transform="translate(26.299130206626927,146.13398273241123)"><circle class="outline" cx="0" cy="0" r="25" fill="#D9C8AE" stroke="#c0a378" stroke-width="2px"/><text text-anchor="middle" pointer-events="none" font-family="sans-serif" dy="1.5625" font-size="25" fill="#2A2C34"/><text text-anchor="middle" pointer-events="none" x="0" y="5" font-size="10px" fill="#2A2C34" font-family="sans-serif"> Rimbik</text></g></g></svg>